name processed_emg_signals
nRows=57
nColumns=7
 
endheader
time	RGLTMED	RRF	RADDLONG	RST	RTA	RGM
3.0220000000000002	0.0563691642651935	0.1609166405517764	0.4696206204522026	0.0886215968758769	0.4883984533304473	0.0406962047117758
3.023	0.0557485863870881	0.1634595837144657	0.4685988140225721	0.0889224653268793	0.4909704627248484	0.0410201372405301
3.024	0.0551413190793781	0.1659831524281769	0.4675850002647346	0.0891951651577531	0.4935518479780655	0.0413302668689907
3.025	0.054547786048091	0.168485474455089	0.4665786770558864	0.0894384848249092	0.4961448340819374	0.0416264674025007
3.0260000000000002	0.0539683816246704	0.1709647013586716	0.4655793306175441	0.0896512176700803	0.4987516261293054	0.0419086400407226
3.027	0.0534034707738086	0.173419010079601	0.4645864375534268	0.0898321638577737	0.5013744035780098	0.0421767130835209
3.028	0.0528533891383439	0.1758466044242828	0.4635994667707626	0.0899801323604645	0.5040153145066523	0.0424306416121045
3.029	0.0523184431196379	0.1782457164620653	0.4626178812816826	0.0900939429893482	0.5066764698656728	0.0426704071456375
3.0300000000000002	0.0517989099919925	0.1806146078277887	0.4616411398826276	0.0901724284682155	0.5093599377257908	0.0428960172734901
3.031	0.051295038049686	0.1829515709273185	0.4606686987108078	0.0902144365478876	0.5120677375245675	0.0431075052632467
3.032	0.0508070467854674	0.1852549300446692	0.4597000126771772	0.0902188321585577	0.5148018343109269	0.0433049296446406
3.033	0.0503351270993778	0.1875230423505592	0.4587345367759204	0.0901844995972351	0.5175641329873383	0.0434883737694467
3.0340000000000003	0.0498794415369611	0.1897542988133627	0.457771727270617	0.0901103447477292	0.5203564725499717	0.0436579453474732
3.035	0.0494401245560381	0.1919471250149471	0.4568110427585932	0.0899952973303445	0.523180620328283	0.0438137759587181
3.036	0.049017282821174	0.1940999818749297	0.4558519451159787	0.0898383131786604	0.5260382662272325	0.0439560205419016
3.037	0.0486109955251863	0.196211366287994	0.4548939003272951	0.0896383765406433	0.5289310169767668	0.0440848568594932
3.0380000000000003	0.0482213147369882	0.1982798116793696	0.4539363792051156	0.0893945024013293	0.5318603903953028	0.0442004849394202
3.039	0.0478482657752188	0.2003038884842746	0.452978858006188	0.0891057388243502	0.5348278096761547	0.0443031264936312
3.04	0.0474918476071698	0.2022822045575899	0.4520208189512251	0.0887711693094784	0.537834597708513	0.0443930243138516
3.041	0.0471520332725531	0.2042134055202091	0.4510617506566544	0.0883899151633837	0.5408819714470005	0.0444704416449389
3.0420000000000003	0.0468287703315267	0.2060961750485641	0.450101148487493	0.0879611378807371	0.543971036346022	0.0445356615365091
3.043	0.0465219813364357	0.2079292351137711	0.449138514840561	0.0874840415326728	0.5471027808772186	0.0445889861736402
3.044	0.0462315643265323	0.209711346177078	0.4481733593677776	0.0869578751596175	0.5502780711499125	0.0446307361875452
3.045	0.0459573933450004	0.2114413073484838	0.4472051991484626	0.0863819351652841	0.5534976456555494	0.0446612499472113
3.0460000000000003	0.0456993189774449	0.2131179565154224	0.4462335588191933	0.0857555677086052	0.5567621101583048	0.0446808828329348
3.047	0.0454571689111542	0.2147401704480957	0.4452579706691066	0.0850781710900592	0.5600719327557673	0.0446900064927447
3.048	0.0452307485143154	0.2163068648876765	0.4442779747075711	0.0843491981289545	0.5634274391353901	0.0446890080826153
3.049	0.0450198414345365	0.217816994622951	0.4432931187103973	0.083568158528022	0.566828808053851	0.0446782894914188
3.0500000000000003	0.0448242102158939	0.2192695535603654	0.4423029582497962	0.0827346212216515	0.5702760670667342	0.0446582665515756
3.051	0.0446435969339005	0.2206635747917234	0.4413070567122675	0.0818482167042641	0.5737690885357066	0.0446293682363688
3.052	0.0444777238475015	0.2219981306631759	0.4403049853079135	0.0809086393351854	0.5773075859393842	0.0445920358449387
3.053	0.0443262940674212	0.2232723328483807	0.439296323073675	0.0799156496167351	0.5808911105129883	0.0445467221761049
3.0540000000000003	0.044188992239942	0.2244853324280515	0.4382806568724874	0.0788690764422425	0.58451904824055	0.0444938906922322
3.055	0.0440654852452944	0.2256363199775529	0.4372575813891522	0.0777688193108413	0.5881906172218535	0.0444340146745588
3.056	0.0439554229097763	0.2267245256634882	0.436226699123439	0.0766148505059889	0.5919048654343116	0.0443675763715805
3.057	0.0438584387306774	0.2277492193497697	0.435187620380027	0.0754072172346742	0.5956606689080892	0.0442950661421842
3.0580000000000003	0.0437741506131544	0.2287097107131015	0.4341399632547225	0.07414604372438	0.5994567303306135	0.0442169815953559
3.059	0.0437021616181349	0.2296053493673124	0.4330833536158407	0.0728315332749366	0.6032915780947329	0.0441338267282391
3.06	0.0436420607203855	0.2304355249955073	0.4320174250799112	0.0714639702623432	0.6071635658029083	0.044046111064309
3.061	0.0435934235759294	0.2311996674887927	0.4309418189801586	0.0700437220917598	0.6110708722377162	0.0439543487933446
3.0620000000000003	0.0435558132979879	0.2318972470903263	0.4298561843265984	0.0685712410967661	0.6150115018068573	0.0438590579147965
3.063	0.0435287812406864	0.232527774543584	0.4287601777559127	0.0670470663820535	0.618983285468821	0.043760759386047
3.064	0.0435118677897512	0.233090801244399	0.4276534634693921	0.0654718256065718	0.6229838821433024	0.0436599762769403
3.065	0.0435046031594948	0.2335859193967467	0.4265357131569555	0.0638462367040152	0.6270107806089139	0.0435572329319075
3.0660000000000003	0.0435065081953425	0.23401276217278	0.4254066059055732	0.0621711095376488	0.631061301889312	0.0434530541408569
3.067	0.04351709518136	0.2343710038780438	0.4242658280899299	0.0604473474862817	0.6351326021275718	0.0433479643200133
3.068	0.043535868652151	0.2346603601231736	0.4231130732447328	0.0586759489584389	0.6392216759476493	0.0432424867037019
3.069	0.0435623262086491	0.2348805880034943	0.4219480419187185	0.0568580088316226	0.6433253603003142	0.0431371425481096
3.0700000000000003	0.0435959593373072	0.2350314862881199	0.4207704415121058	0.0549947198136924	0.6474403387899041	0.0430324503479309
3.071	0.0436362542321819	0.235112895619986	0.4195799861000896	0.0530873737231438	0.6515631464767334	0.0429289250668701
3.072	0.0436826926193491	0.2351246987280903	0.4183763962464526	0.0511373626850405	0.6556901751487983	0.0428270773829091
3.073	0.0437347525831204	0.2350668206529187	0.4171593988111098	0.049146180239105	0.659817679055283	0.0427274129492506
3.074	0.0437919093934313	0.2349392289854793	0.4159287267558785	0.047115422356345	0.6639417810932847	0.0426304316718971
3.075	0.0438536363338742	0.2347419341200542	0.4146841189525259	0.045046788360468	0.6680584794382064	0.0425366270047805
3.076	0.0439194055296691	0.2344749895203132	0.413425319997691	0.0429420817502444	0.6721636546070686	0.0424464852634108
3.077	0.043988688775022	0.234138491998085	0.4121520800399523	0.0408032109189779	0.6762530769431071	0.0423604849580445
3.078	0.0440609583591414	0.233732582003727	0.4108641546247709	0.0386321897671382	0.6803224145087695	0.0422790961473002
